<?xml version="1.0" encoding="UTF-8" standalone="no"?>
<svg
   xmlns:dc="http://purl.org/dc/elements/1.1/"
   xmlns:cc="http://creativecommons.org/ns#"
   xmlns:rdf="http://www.w3.org/1999/02/22-rdf-syntax-ns#"
   xmlns:svg="http://www.w3.org/2000/svg"
   xmlns="http://www.w3.org/2000/svg"
   id="svg876"
   version="1.1"
   viewBox="0 0 12.7 12.7"
   height="48"
   width="48">
  <defs
     id="defs870" />
  <metadata
     id="metadata873">
    <rdf:RDF>
      <cc:Work
         rdf:about="">
        <dc:format>image/svg+xml</dc:format>
        <dc:type
           rdf:resource="http://purl.org/dc/dcmitype/StillImage" />
        <dc:title></dc:title>
      </cc:Work>
    </rdf:RDF>
  </metadata>
  <path
     id="rect4536"
     d="m 2.7254975,5.3559771 c 2.5772719,0.012917 5.1566235,-0.026094 7.7325925,0.019968 1.122712,0.1490187 1.951664,1.3051531 1.789831,2.4161984 -0.02985,0.8348473 0.09593,1.6929199 -0.114972,2.509691 -0.320303,0.937758 -1.34693,1.526929 -2.3187881,1.40406 C 7.3434464,11.693271 4.8706526,11.731986 2.401242,11.686039 1.2785333,11.536988 0.44957434,10.380863 0.61140698,9.2698072 0.64070355,8.4415542 0.51782772,7.5910292 0.72150373,6.779866 1.0015894,5.9478504 1.843889,5.3374236 2.7254975,5.3559771 Z"
     style="fill:#ffffff;fill-opacity:1;stroke:#000000;stroke-width:0.52916664;stroke-miterlimit:4;stroke-dasharray:none;stroke-opacity:1" />
  <path
     id="path4540"
     d="m 0.57004677,10.134271 c 3.88051143,-9.59e-4 7.76102283,-0.0019 11.64153423,-0.0029"
     style="fill:none;stroke:#000000;stroke-width:0.52628922;stroke-linecap:butt;stroke-linejoin:miter;stroke-miterlimit:4;stroke-dasharray:none;stroke-opacity:1" />
  <path
     id="path4540-3"
     d="M 0.57004667,8.5186606 C 4.4505581,8.5176939 8.3310696,8.5167273 12.211581,8.5157606"
     style="fill:none;stroke:#000000;stroke-width:0.52628922;stroke-linecap:butt;stroke-linejoin:miter;stroke-miterlimit:4;stroke-dasharray:none;stroke-opacity:1" />
  <path
     id="path4540-3-6"
     d="M 0.57004676,6.9030389 C 4.4505582,6.9020722 8.3310696,6.9011056 12.211581,6.9001389"
     style="fill:none;stroke:#000000;stroke-width:0.52628922;stroke-linecap:butt;stroke-linejoin:miter;stroke-miterlimit:4;stroke-dasharray:none;stroke-opacity:1" />
  <path
     id="path4540-7"
     d="M 6.4019348,10.264389 C 6.4008548,9.6377404 6.3997748,9.0110918 6.3986948,8.3844432"
     style="fill:none;stroke:#000000;stroke-width:0.5291667;stroke-linecap:butt;stroke-linejoin:miter;stroke-miterlimit:4;stroke-dasharray:none;stroke-opacity:1" />
  <path
     id="path4540-3-5"
     d="M 4.7266728,10.264389 C 4.7255928,9.6377404 4.7245128,9.0110918 4.7234328,8.3844432"
     style="fill:none;stroke:#000000;stroke-width:0.5291667;stroke-linecap:butt;stroke-linejoin:miter;stroke-miterlimit:4;stroke-dasharray:none;stroke-opacity:1" />
  <path
     id="path4540-3-6-3"
     d="M 3.0514102,10.264389 C 3.0503302,9.6377404 3.0492502,9.0110918 3.0481702,8.3844432"
     style="fill:none;stroke:#000000;stroke-width:0.5291667;stroke-linecap:butt;stroke-linejoin:miter;stroke-miterlimit:4;stroke-dasharray:none;stroke-opacity:1" />
  <path
     id="path4540-3-5-6"
     d="M 9.7524604,10.264389 C 9.7513804,9.6377404 9.7503004,9.0110918 9.7492204,8.3844432"
     style="fill:none;stroke:#000000;stroke-width:0.52916676;stroke-linecap:butt;stroke-linejoin:miter;stroke-miterlimit:4;stroke-dasharray:none;stroke-opacity:1" />
  <path
     id="path4540-3-6-3-2"
     d="M 8.0771973,10.264389 C 8.0761173,9.6377404 8.0750373,9.0110918 8.0739573,8.3844432"
     style="fill:none;stroke:#000000;stroke-width:0.52916676;stroke-linecap:butt;stroke-linejoin:miter;stroke-miterlimit:4;stroke-dasharray:none;stroke-opacity:1" />
  <path
     id="path4540-7-9"
     d="M 5.62004,8.5996975 C 5.61896,7.9730486 5.6178799,7.3463997 5.6167999,6.7197508"
     style="fill:none;stroke:#000000;stroke-width:0.52916676;stroke-linecap:butt;stroke-linejoin:miter;stroke-miterlimit:4;stroke-dasharray:none;stroke-opacity:1" />
  <path
     id="path4540-3-5-1"
     d="M 3.9447831,8.5996975 C 3.9437031,7.9730486 3.9426231,7.3463997 3.9415431,6.7197508"
     style="fill:none;stroke:#000000;stroke-width:0.52916676;stroke-linecap:butt;stroke-linejoin:miter;stroke-miterlimit:4;stroke-dasharray:none;stroke-opacity:1" />
  <path
     id="path4540-3-6-3-27"
     d="M 2.2695252,8.5996975 C 2.2684452,7.9730486 2.2673652,7.3463997 2.2662852,6.7197508"
     style="fill:none;stroke:#000000;stroke-width:0.52916676;stroke-linecap:butt;stroke-linejoin:miter;stroke-miterlimit:4;stroke-dasharray:none;stroke-opacity:1" />
  <path
     id="path4540-7-5-0"
     d="m 10.645792,8.5996975 c -0.0011,-0.6266488 -0.0021,-1.2532979 -0.0032,-1.8799467"
     style="fill:none;stroke:#000000;stroke-width:0.52916682;stroke-linecap:butt;stroke-linejoin:miter;stroke-miterlimit:4;stroke-dasharray:none;stroke-opacity:1" />
  <path
     id="path4540-3-5-6-9"
     d="M 8.970555,8.5996975 C 8.969475,7.9730486 8.968395,7.3463997 8.967315,6.7197508"
     style="fill:none;stroke:#000000;stroke-width:0.52916682;stroke-linecap:butt;stroke-linejoin:miter;stroke-miterlimit:4;stroke-dasharray:none;stroke-opacity:1" />
  <path
     id="path4540-3-6-3-2-3"
     d="M 7.2952975,8.5996975 C 7.2942175,7.9730486 7.2931374,7.3463997 7.2920574,6.7197508"
     style="fill:none;stroke:#000000;stroke-width:0.52916682;stroke-linecap:butt;stroke-linejoin:miter;stroke-miterlimit:4;stroke-dasharray:none;stroke-opacity:1" />
  <path
     id="path4540-3-5-1-6"
     d="m 3.9447831,11.864126 c -0.00108,-0.626649 -0.00216,-1.253298 -0.00324,-1.8799469"
     style="fill:none;stroke:#000000;stroke-width:0.52916682;stroke-linecap:butt;stroke-linejoin:miter;stroke-miterlimit:4;stroke-dasharray:none;stroke-opacity:1" />
  <path
     id="path4540-3-5-6-9-0"
     d="M 8.970535,11.864126 C 8.969465,11.237477 8.968405,10.610828 8.967335,9.9841791"
     style="fill:none;stroke:#000000;stroke-width:0.52916682;stroke-linecap:butt;stroke-linejoin:miter;stroke-miterlimit:4;stroke-dasharray:none;stroke-opacity:1" />
  <path
     id="path4540-7-9-6"
     d="M 6.4019353,7.0478124 C 6.4008552,6.4211635 6.399775,5.7945146 6.3986949,5.1678657"
     style="fill:none;stroke:#000000;stroke-width:0.52916682;stroke-linecap:butt;stroke-linejoin:miter;stroke-miterlimit:4;stroke-dasharray:none;stroke-opacity:1" />
  <path
     id="path4540-3-5-1-2"
     d="M 4.7266726,7.0478124 C 4.7255926,6.4211635 4.7245126,5.7945146 4.7234326,5.1678657"
     style="fill:none;stroke:#000000;stroke-width:0.52916682;stroke-linecap:butt;stroke-linejoin:miter;stroke-miterlimit:4;stroke-dasharray:none;stroke-opacity:1" />
  <path
     id="path4540-3-6-3-27-6"
     d="M 3.0514102,7.0478124 C 3.0503302,6.4211635 3.0492502,5.7945146 3.0481702,5.1678657"
     style="fill:none;stroke:#000000;stroke-width:0.52916682;stroke-linecap:butt;stroke-linejoin:miter;stroke-miterlimit:4;stroke-dasharray:none;stroke-opacity:1" />
  <path
     id="path4540-3-5-6-9-8"
     d="m 9.7524404,7.0478124 c -0.00107,-0.6266489 -0.00213,-1.2532978 -0.0032,-1.8799467"
     style="fill:none;stroke:#000000;stroke-width:0.52916682;stroke-linecap:butt;stroke-linejoin:miter;stroke-miterlimit:4;stroke-dasharray:none;stroke-opacity:1" />
  <path
     id="path4540-3-6-3-2-3-7"
     d="m 8.0771774,7.0478124 c -0.00107,-0.6266489 -0.00213,-1.2532978 -0.0032,-1.8799467"
     style="fill:none;stroke:#000000;stroke-width:0.52916682;stroke-linecap:butt;stroke-linejoin:miter;stroke-miterlimit:4;stroke-dasharray:none;stroke-opacity:1" />
  <path
     id="path4692"
     d="m 10.964512,6.1414728 c -0.01884,0.7675246 -1.2589575,0.2064101 -0.638705,-0.3047713 0.247478,-0.2300393 0.647942,-0.013145 0.638705,0.3047713 z"
     style="fill:#00db1c;fill-opacity:1;stroke:none;stroke-width:1.11502957;stroke-miterlimit:4;stroke-dasharray:none;stroke-opacity:1" />
  <path
     id="path4694"
     d="M 3.1288904,5.4369335 C 3.1289597,4.4515695 4.0854801,3.8343683 4.9272731,3.5680864 6.6923092,3.1479507 8.5801235,2.6959921 9.9062893,1.3690235 10.27439,0.98689042 10.563311,0.48262745 10.535461,-0.06372329"
     style="fill:none;stroke:#000000;stroke-width:0.5291667;stroke-linecap:butt;stroke-linejoin:miter;stroke-miterlimit:4;stroke-dasharray:none;stroke-opacity:1" />
</svg>
